<svg viewBox="0 0 32 32" xmlns="http://www.w3.org/2000/svg">
  <defs>
    <linearGradient id="milanofav" x1="0%" y1="0%" x2="100%" y2="100%">
      <stop offset="0%" style="stop-color:#c19a6b;stop-opacity:1" />
      <stop offset="100%" style="stop-color:#6f4e37;stop-opacity:1" />
    </linearGradient>
  </defs>
  
  <!-- Background -->
  <circle cx="16" cy="16" r="15" fill="url(#milanofav)" stroke="#4a2511" stroke-width="0.5"/>
  
  <!-- Coffee cup simplified -->
  <path d="M 8 8 L 7 22 Q 7 24 9 24 L 23 24 Q 25 24 25 22 L 24 8 Z" 
        fill="none" stroke="#FFFFFF" stroke-width="1" stroke-linejoin="round"/>
  
  <!-- Coffee inside -->
  <path d="M 9 13 L 23 13 Q 24 18 23 21 Q 23 23 22 23.5 L 10 23.5 Q 9 23 9 21 Q 9 18 10 13" 
        fill="#6F3D1D" opacity="0.8"/>
  
  <!-- Cup rim -->
  <ellipse cx="16" cy="8" rx="8" ry="1.5" fill="none" stroke="#FFFFFF" stroke-width="0.8" opacity="0.7"/>
  
  <!-- Handle -->
  <path d="M 25 10 Q 28 14 27 19" 
        fill="none" stroke="#FFFFFF" stroke-width="1" stroke-linecap="round"/>
  
  <!-- Steam -->
  <path d="M 12 6 Q 10 2 12 0" fill="none" stroke="#FFFFFF" stroke-width="0.7" stroke-linecap="round" opacity="0.7"/>
  <path d="M 16 5 Q 14 1 16 -2" fill="none" stroke="#FFFFFF" stroke-width="0.7" stroke-linecap="round" opacity="0.7"/>
  <path d="M 20 6 Q 22 2 20 0" fill="none" stroke="#FFFFFF" stroke-width="0.7" stroke-linecap="round" opacity="0.7"/>
  
  <!-- Saucer -->
  <ellipse cx="16" cy="25" rx="11" ry="2.5" fill="none" stroke="#FFFFFF" stroke-width="0.8"/>
</svg>
